<svg xmlns="http://www.w3.org/2000/svg" width="2080" height="3624" viewBox="0 0 2080 3624" font-family="-apple-system,'Segoe UI',Helvetica,Arial,sans-serif">
<rect width="2080" height="3624" fill="#0b0b0e"/>
<text x="1040" y="46" text-anchor="middle" font-size="25" font-weight="700" fill="#f0eee6">GOAL — What changed between Marin's Phoenix and Starling checkpoints, and what caused it?</text>
<text x="1040" y="78" text-anchor="middle" font-size="19"><tspan fill="#6fcf9e">✓ 4 answered</tspan><tspan fill="#55555c">   ·   </tspan><tspan fill="#e6b36b">◐ 2 partial</tspan><tspan fill="#55555c">   ·   </tspan><tspan fill="#a9a9b2">○ 2 open</tspan></text>
<path d="M 318 1838 C 439 1838 439 308 560 308" fill="none" stroke="#3f9e6e" stroke-width="2.2" stroke-opacity="0.85"/>
<path d="M 991 308 C 1069 308 1069 165 1132 165" fill="none" stroke="#3f9e6e" stroke-width="1.8" stroke-opacity="0.7"/>
<path d="M 991 308 C 1069 308 1069 227 1132 227" fill="none" stroke="#3f9e6e" stroke-width="1.8" stroke-opacity="0.7"/>
<path d="M 991 308 C 1069 308 1069 289 1132 289" fill="none" stroke="#3f9e6e" stroke-width="1.8" stroke-opacity="0.7"/>
<path d="M 991 308 C 1069 308 1069 351 1132 351" fill="none" stroke="#3f9e6e" stroke-width="1.8" stroke-opacity="0.7"/>
<path d="M 991 308 C 1069 308 1069 413 1132 413" fill="none" stroke="#3f9e6e" stroke-width="1.8" stroke-opacity="0.7"/>
<path d="M 991 308 C 1069 308 1069 475 1132 475" fill="none" stroke="#3f9e6e" stroke-width="1.8" stroke-opacity="0.7"/>
<path d="M 318 1838 C 439 1838 439 723 560 723" fill="none" stroke="#3f9e6e" stroke-width="2.2" stroke-opacity="0.85"/>
<path d="M 1118 723 C 1126 723 1126 611 1132 611" fill="none" stroke="#3f9e6e" stroke-width="1.8" stroke-opacity="0.7"/>
<path d="M 1118 723 C 1126 723 1126 673 1132 673" fill="none" stroke="#3f9e6e" stroke-width="1.8" stroke-opacity="0.7"/>
<path d="M 1118 723 C 1126 723 1126 735 1132 735" fill="none" stroke="#3f9e6e" stroke-width="1.8" stroke-opacity="0.7"/>
<path d="M 1118 723 C 1126 723 1126 797 1132 797" fill="none" stroke="#3f9e6e" stroke-width="1.8" stroke-opacity="0.7"/>
<path d="M 1118 723 C 1126 723 1126 859 1132 859" fill="none" stroke="#3f9e6e" stroke-width="1.8" stroke-opacity="0.7"/>
<path d="M 318 1838 C 439 1838 439 1107 560 1107" fill="none" stroke="#d99a3b" stroke-width="2.2" stroke-opacity="0.85"/>
<path d="M 1037 1107 C 1089 1107 1089 995 1132 995" fill="none" stroke="#d99a3b" stroke-width="1.8" stroke-opacity="0.7"/>
<path d="M 1037 1107 C 1089 1107 1089 1057 1132 1057" fill="none" stroke="#d99a3b" stroke-width="1.8" stroke-opacity="0.7"/>
<path d="M 1037 1107 C 1089 1107 1089 1119 1132 1119" fill="none" stroke="#d99a3b" stroke-width="1.8" stroke-opacity="0.7"/>
<path d="M 1037 1107 C 1089 1107 1089 1181 1132 1181" fill="none" stroke="#d99a3b" stroke-width="1.8" stroke-opacity="0.7"/>
<path d="M 1037 1107 C 1089 1107 1089 1243 1132 1243" fill="none" stroke="#d99a3b" stroke-width="1.8" stroke-opacity="0.7"/>
<path d="M 318 1838 C 439 1838 439 1460 560 1460" fill="none" stroke="#3f9e6e" stroke-width="2.2" stroke-opacity="0.85"/>
<path d="M 1049 1460 C 1095 1460 1095 1379 1132 1379" fill="none" stroke="#3f9e6e" stroke-width="1.8" stroke-opacity="0.7"/>
<path d="M 1049 1460 C 1095 1460 1095 1441 1132 1441" fill="none" stroke="#3f9e6e" stroke-width="1.8" stroke-opacity="0.7"/>
<path d="M 1049 1460 C 1095 1460 1095 1503 1132 1503" fill="none" stroke="#3f9e6e" stroke-width="1.8" stroke-opacity="0.7"/>
<path d="M 1049 1460 C 1095 1460 1095 1565 1132 1565" fill="none" stroke="#3f9e6e" stroke-width="1.8" stroke-opacity="0.7"/>
<path d="M 318 1838 C 439 1838 439 1844 560 1844" fill="none" stroke="#8a8a92" stroke-width="2.2" stroke-opacity="0.85"/>
<path d="M 1084 1844 C 1110 1844 1110 1701 1132 1701" fill="none" stroke="#8a8a92" stroke-width="1.8" stroke-opacity="0.7"/>
<path d="M 1084 1844 C 1110 1844 1110 1763 1132 1763" fill="none" stroke="#8a8a92" stroke-width="1.8" stroke-opacity="0.7"/>
<path d="M 1084 1844 C 1110 1844 1110 1825 1132 1825" fill="none" stroke="#8a8a92" stroke-width="1.8" stroke-opacity="0.7"/>
<path d="M 1084 1844 C 1110 1844 1110 1887 1132 1887" fill="none" stroke="#8a8a92" stroke-width="1.8" stroke-opacity="0.7"/>
<path d="M 1084 1844 C 1110 1844 1110 1949 1132 1949" fill="none" stroke="#8a8a92" stroke-width="1.8" stroke-opacity="0.7"/>
<path d="M 1084 1844 C 1110 1844 1110 2011 1132 2011" fill="none" stroke="#8a8a92" stroke-width="1.8" stroke-opacity="0.7"/>
<path d="M 318 1838 C 439 1838 439 2352 560 2352" fill="none" stroke="#d99a3b" stroke-width="2.2" stroke-opacity="0.85"/>
<path d="M 1118 2352 C 1126 2352 1126 2147 1132 2147" fill="none" stroke="#d99a3b" stroke-width="1.8" stroke-opacity="0.7"/>
<path d="M 1118 2352 C 1126 2352 1126 2209 1132 2209" fill="none" stroke="#d99a3b" stroke-width="1.8" stroke-opacity="0.7"/>
<path d="M 1118 2352 C 1126 2352 1126 2271 1132 2271" fill="none" stroke="#d99a3b" stroke-width="1.8" stroke-opacity="0.7"/>
<path d="M 1118 2352 C 1126 2352 1126 2333 1132 2333" fill="none" stroke="#d99a3b" stroke-width="1.8" stroke-opacity="0.7"/>
<path d="M 1118 2352 C 1126 2352 1126 2395 1132 2395" fill="none" stroke="#d99a3b" stroke-width="1.8" stroke-opacity="0.7"/>
<path d="M 1118 2352 C 1126 2352 1126 2457 1132 2457" fill="none" stroke="#d99a3b" stroke-width="1.8" stroke-opacity="0.7"/>
<path d="M 1118 2352 C 1126 2352 1126 2519 1132 2519" fill="none" stroke="#d99a3b" stroke-width="1.8" stroke-opacity="0.7"/>
<path d="M 1118 2352 C 1126 2352 1126 2581 1132 2581" fill="none" stroke="#d99a3b" stroke-width="1.8" stroke-opacity="0.7"/>
<path d="M 318 1838 C 439 1838 439 2922 560 2922" fill="none" stroke="#3f9e6e" stroke-width="2.2" stroke-opacity="0.85"/>
<path d="M 1107 2922 C 1121 2922 1121 2717 1132 2717" fill="none" stroke="#3f9e6e" stroke-width="1.8" stroke-opacity="0.7"/>
<path d="M 1107 2922 C 1121 2922 1121 2779 1132 2779" fill="none" stroke="#3f9e6e" stroke-width="1.8" stroke-opacity="0.7"/>
<path d="M 1107 2922 C 1121 2922 1121 2841 1132 2841" fill="none" stroke="#3f9e6e" stroke-width="1.8" stroke-opacity="0.7"/>
<path d="M 1107 2922 C 1121 2922 1121 2903 1132 2903" fill="none" stroke="#3f9e6e" stroke-width="1.8" stroke-opacity="0.7"/>
<path d="M 1107 2922 C 1121 2922 1121 2965 1132 2965" fill="none" stroke="#3f9e6e" stroke-width="1.8" stroke-opacity="0.7"/>
<path d="M 1107 2922 C 1121 2922 1121 3027 1132 3027" fill="none" stroke="#3f9e6e" stroke-width="1.8" stroke-opacity="0.7"/>
<path d="M 1107 2922 C 1121 2922 1121 3089 1132 3089" fill="none" stroke="#3f9e6e" stroke-width="1.8" stroke-opacity="0.7"/>
<path d="M 1107 2922 C 1121 2922 1121 3151 1132 3151" fill="none" stroke="#3f9e6e" stroke-width="1.8" stroke-opacity="0.7"/>
<path d="M 318 1838 C 439 1838 439 3399 560 3399" fill="none" stroke="#8a8a92" stroke-width="2.2" stroke-opacity="0.85"/>
<path d="M 1095 3399 C 1115 3399 1115 3287 1132 3287" fill="none" stroke="#8a8a92" stroke-width="1.8" stroke-opacity="0.7"/>
<path d="M 1095 3399 C 1115 3399 1115 3349 1132 3349" fill="none" stroke="#8a8a92" stroke-width="1.8" stroke-opacity="0.7"/>
<path d="M 1095 3399 C 1115 3399 1115 3411 1132 3411" fill="none" stroke="#8a8a92" stroke-width="1.8" stroke-opacity="0.7"/>
<path d="M 1095 3399 C 1115 3399 1115 3473 1132 3473" fill="none" stroke="#8a8a92" stroke-width="1.8" stroke-opacity="0.7"/>
<path d="M 1095 3399 C 1115 3399 1115 3535 1132 3535" fill="none" stroke="#8a8a92" stroke-width="1.8" stroke-opacity="0.7"/>
<rect x="560" y="275" width="431" height="66" rx="15" fill="#e2f4e8" stroke="#3f9e6e" stroke-width="1.5"/><text x="776" y="316" text-anchor="middle" font-size="23" font-weight="600" fill="#1f6b45">✓ Did the behavior change at all?</text>
<text x="1140" y="158" font-size="21" font-weight="700" fill="#6fcf9e">Yes — refusal −12.2pp, corrective −12.2pp, attempt-strong +28.5pp</text><line x1="1132" y1="165" x2="2020" y2="165" stroke="#3f9e6e" stroke-width="1.4" stroke-opacity="0.55"/>
<text x="1140" y="220" font-size="20" font-weight="400" fill="#c9cbd4">54 behaviors × 10 seeds, 1,080 responses; verified within 0.02pp</text><line x1="1132" y1="227" x2="2020" y2="227" stroke="#3f9e6e" stroke-width="1.4" stroke-opacity="0.55"/>
<text x="1140" y="282" font-size="20" font-weight="400" fill="#c9cbd4">Direction replicates across raters; magnitude does not (three-way 0.867)</text><line x1="1132" y1="289" x2="2020" y2="289" stroke="#3f9e6e" stroke-width="1.4" stroke-opacity="0.55"/>
<text x="1140" y="344" font-size="20" font-weight="400" fill="#c9cbd4">Endorsement +27.6pp; the gap itself is untouched by subtype analysis</text><line x1="1132" y1="351" x2="2020" y2="351" stroke="#3f9e6e" stroke-width="1.4" stroke-opacity="0.55"/>
<text x="1140" y="406" font-size="20" font-weight="400" fill="#c9cbd4">Restatement artefact NON-DIFFERENTIAL: ≈−2.5pp of +28.5, 0.00pp of the drop</text><line x1="1132" y1="413" x2="2020" y2="413" stroke="#3f9e6e" stroke-width="1.4" stroke-opacity="0.55"/>
<text x="1140" y="468" font-size="20" font-weight="400" fill="#c9cbd4">General instruction following also improved: IFEval +11.8pp strict</text><line x1="1132" y1="475" x2="2020" y2="475" stroke="#3f9e6e" stroke-width="1.4" stroke-opacity="0.55"/>
<rect x="560" y="690" width="558" height="66" rx="15" fill="#e2f4e8" stroke="#3f9e6e" stroke-width="1.5"/><text x="839" y="731" text-anchor="middle" font-size="23" font-weight="600" fill="#1f6b45">✓ Is the instrument reading harm, or stance?</text>
<text x="1140" y="604" font-size="21" font-weight="700" fill="#6fcf9e">Stance — a WildGuard harmful rate is not a harm-severity rate</text><line x1="1132" y1="611" x2="2020" y2="611" stroke="#3f9e6e" stroke-width="1.4" stroke-opacity="0.55"/>
<text x="1140" y="666" font-size="20" font-weight="400" fill="#c9cbd4">S1-3D: unique out-of-fold ΔAUC stance +0.404, writing quality +0.009</text><line x1="1132" y1="673" x2="2020" y2="673" stroke="#3f9e6e" stroke-width="1.4" stroke-opacity="0.55"/>
<text x="1140" y="728" font-size="20" font-weight="400" fill="#c9cbd4">Quality's interval spans zero; verified within 0.0005 by two paths</text><line x1="1132" y1="735" x2="2020" y2="735" stroke="#3f9e6e" stroke-width="1.4" stroke-opacity="0.55"/>
<text x="1140" y="790" font-size="20" font-weight="400" fill="#c9cbd4">Consequence: the style-artefact route (S1-3C) stays parked</text><line x1="1132" y1="797" x2="2020" y2="797" stroke="#3f9e6e" stroke-width="1.4" stroke-opacity="0.55"/>
<text x="1140" y="852" font-size="20" font-weight="400" fill="#c9cbd4">S1-JUDGE-VOCAB: 2 out-of-vocabulary labels in 6,405 rows, 0 in the primary</text><line x1="1132" y1="859" x2="2020" y2="859" stroke="#3f9e6e" stroke-width="1.4" stroke-opacity="0.55"/>
<rect x="560" y="1074" width="477" height="66" rx="15" fill="#fbf0dc" stroke="#d99a3b" stroke-width="1.5"/><text x="798" y="1115" text-anchor="middle" font-size="23" font-weight="600" fill="#8a5a12">◐ Unqualified endorsement, or hedged?</text>
<text x="1140" y="988" font-size="21" font-weight="700" fill="#e6b36b">Not resolvable — 45–74% unqualified across three valid raters</text><line x1="1132" y1="995" x2="2020" y2="995" stroke="#d99a3b" stroke-width="1.4" stroke-opacity="0.55"/>
<text x="1140" y="1050" font-size="20" font-weight="400" fill="#c9cbd4">Claude 0.682 · Gemini Pro 0.664 [0.579, 0.743] · GPT 0.537 [0.449, 0.615]</text><line x1="1132" y1="1057" x2="2020" y2="1057" stroke="#d99a3b" stroke-width="1.4" stroke-opacity="0.55"/>
<text x="1140" y="1112" font-size="20" font-weight="400" fill="#c9cbd4">No interval excludes the 0.60 bar; the two CIs overlap</text><line x1="1132" y1="1119" x2="2020" y2="1119" stroke="#d99a3b" stroke-width="1.4" stroke-opacity="0.55"/>
<text x="1140" y="1174" font-size="20" font-weight="400" fill="#c9cbd4">Per-arm rather than pooled fitting moves GPT to 0.377 — the method is a lever</text><line x1="1132" y1="1181" x2="2020" y2="1181" stroke="#d99a3b" stroke-width="1.4" stroke-opacity="0.55"/>
<text x="1140" y="1236" font-size="20" font-weight="400" fill="#c9cbd4">S1-3F verdict MIXED; 'flatly asserts' retracted, 0.682 is not the estimate</text><line x1="1132" y1="1243" x2="2020" y2="1243" stroke="#d99a3b" stroke-width="1.4" stroke-opacity="0.55"/>
<rect x="560" y="1427" width="489" height="66" rx="15" fill="#e2f4e8" stroke="#3f9e6e" stroke-width="1.5"/><text x="804" y="1468" text-anchor="middle" font-size="23" font-weight="600" fill="#1f6b45">✓ When in the cooldown does it appear?</text>
<text x="1140" y="1372" font-size="21" font-weight="700" fill="#6fcf9e">Early — present by 25% of the cooldown (f 0.970 [0.671, 1.423])</text><line x1="1132" y1="1379" x2="2020" y2="1379" stroke="#3f9e6e" stroke-width="1.4" stroke-opacity="0.55"/>
<text x="1140" y="1434" font-size="20" font-weight="400" fill="#c9cbd4">All three public intermediates differ from Phoenix, none from Starling</text><line x1="1132" y1="1441" x2="2020" y2="1441" stroke="#3f9e6e" stroke-width="1.4" stroke-opacity="0.55"/>
<text x="1140" y="1496" font-size="20" font-weight="400" fill="#c9cbd4">Mixture, LR, batch and z-loss all switch together at step 1,320,000</text><line x1="1132" y1="1503" x2="2020" y2="1503" stroke="#3f9e6e" stroke-width="1.4" stroke-opacity="0.55"/>
<text x="1140" y="1558" font-size="20" font-weight="400" fill="#c9cbd4">So this is a temporal bound, not a cause. Descriptive, not an exit gate.</text><line x1="1132" y1="1565" x2="2020" y2="1565" stroke="#3f9e6e" stroke-width="1.4" stroke-opacity="0.55"/>
<rect x="560" y="1811" width="524" height="66" rx="15" fill="#f2f0e6" stroke="#8a8a92" stroke-width="1.5"/><text x="822" y="1852" text-anchor="middle" font-size="23" font-weight="600" fill="#4a4a42">○ Stance-specific, or general compliance?</text>
<text x="1140" y="1694" font-size="21" font-weight="700" fill="#a9a9b2">OPEN — no evaluable benign control exists. This is the Stage 1 gate.</text><line x1="1132" y1="1701" x2="2020" y2="1701" stroke="#8a8a92" stroke-width="1.4" stroke-opacity="0.55"/>
<text x="1140" y="1756" font-size="20" font-weight="400" fill="#c9cbd4">S1-05 NOT EVALUABLE: the composite floored at 0.00% / 1.85% under a 5% gate</text><line x1="1132" y1="1763" x2="2020" y2="1763" stroke="#8a8a92" stroke-width="1.4" stroke-opacity="0.55"/>
<text x="1140" y="1818" font-size="20" font-weight="400" fill="#c9cbd4">S1-05B valid but not discriminating: Δ +1.5000 constraints, p &lt; 1e-4</text><line x1="1132" y1="1825" x2="2020" y2="1825" stroke="#8a8a92" stroke-width="1.4" stroke-opacity="0.55"/>
<text x="1140" y="1880" font-size="20" font-weight="400" fill="#c9cbd4">104.9% of that Δ is title + audience — two checks one header satisfies</text><line x1="1132" y1="1887" x2="2020" y2="1887" stroke="#8a8a92" stroke-width="1.4" stroke-opacity="0.55"/>
<text x="1140" y="1942" font-size="20" font-weight="400" fill="#c9cbd4">Drop those two and the same rule returns Δ −0.0741 [−0.2346, +0.0864]</text><line x1="1132" y1="1949" x2="2020" y2="1949" stroke="#8a8a92" stroke-width="1.4" stroke-opacity="0.55"/>
<text x="1140" y="2004" font-size="20" font-weight="400" fill="#c9cbd4">S1-05C must separate cause from co-symptom; surface format alone will not</text><line x1="1132" y1="2011" x2="2020" y2="2011" stroke="#8a8a92" stroke-width="1.4" stroke-opacity="0.55"/>
<rect x="560" y="2319" width="558" height="66" rx="15" fill="#fbf0dc" stroke="#d99a3b" stroke-width="1.5"/><text x="839" y="2360" text-anchor="middle" font-size="23" font-weight="600" fill="#8a5a12">◐ Document persona, or delivery disposition?</text>
<text x="1140" y="2140" font-size="21" font-weight="700" fill="#e6b36b">A delivery disposition — the header does not carry, the framing does</text><line x1="1132" y1="2147" x2="2020" y2="2147" stroke="#d99a3b" stroke-width="1.4" stroke-opacity="0.55"/>
<text x="1140" y="2202" font-size="20" font-weight="400" fill="#c9cbd4">S1-FORMAT: header Δ +0.93pp, CI [−6.63, +8.48], MDE 9.44pp — excluded</text><line x1="1132" y1="2209" x2="2020" y2="2209" stroke="#d99a3b" stroke-width="1.4" stroke-opacity="0.55"/>
<text x="1140" y="2264" font-size="20" font-weight="400" fill="#c9cbd4">S1-FORMAT: assistant_preamble +16.67pp (p &lt; 1e-4) where no format is asked</text><line x1="1132" y1="2271" x2="2020" y2="2271" stroke="#d99a3b" stroke-width="1.4" stroke-opacity="0.55"/>
<text x="1140" y="2326" font-size="20" font-weight="400" fill="#c9cbd4">Those rows are 57% attempt-strong with zero refusals at Starling</text><line x1="1132" y1="2333" x2="2020" y2="2333" stroke="#d99a3b" stroke-width="1.4" stroke-opacity="0.55"/>
<text x="1140" y="2388" font-size="20" font-weight="400" fill="#c9cbd4">S1-PREFIX: the prefill moves Phoenix +29.63pp [+21.48, +38.15]</text><line x1="1132" y1="2395" x2="2020" y2="2395" stroke="#d99a3b" stroke-width="1.4" stroke-opacity="0.55"/>
<text x="1140" y="2450" font-size="20" font-weight="400" fill="#c9cbd4">Control holds: 'deflect' moves +5.93pp (p 0.28). f = 1.333, an overshoot</text><line x1="1132" y1="2457" x2="2020" y2="2457" stroke="#d99a3b" stroke-width="1.4" stroke-opacity="0.55"/>
<text x="1140" y="2512" font-size="20" font-weight="400" fill="#c9cbd4">NARROW claim only — 62% runs through the partly-forced refusal channel</text><line x1="1132" y1="2519" x2="2020" y2="2519" stroke="#d99a3b" stroke-width="1.4" stroke-opacity="0.55"/>
<text x="1140" y="2574" font-size="20" font-weight="400" fill="#c9cbd4">S1-PREFIX-B adds the content-free 'Sure,' arm that separates the two</text><line x1="1132" y1="2581" x2="2020" y2="2581" stroke="#d99a3b" stroke-width="1.4" stroke-opacity="0.55"/>
<rect x="560" y="2889" width="547" height="66" rx="15" fill="#e2f4e8" stroke="#3f9e6e" stroke-width="1.5"/><text x="834" y="2930" text-anchor="middle" font-size="23" font-weight="600" fill="#1f6b45">✓ Are the intervals themselves trustworthy?</text>
<text x="1140" y="2710" font-size="21" font-weight="700" fill="#6fcf9e">Directions yes, precision no — every in-scope interval was ~half its width</text><line x1="1132" y1="2717" x2="2020" y2="2717" stroke="#3f9e6e" stroke-width="1.4" stroke-opacity="0.55"/>
<text x="1140" y="2772" font-size="20" font-weight="400" fill="#c9cbd4">S1-STATS: the incumbent bootstrap conditions on the seed draw it should resample</text><line x1="1132" y1="2779" x2="2020" y2="2779" stroke="#3f9e6e" stroke-width="1.4" stroke-opacity="0.55"/>
<text x="1140" y="2834" font-size="20" font-weight="400" fill="#c9cbd4">Its type-I error is monotone in the seed sd it ignores — up to 40.5%</text><line x1="1132" y1="2841" x2="2020" y2="2841" stroke="#3f9e6e" stroke-width="1.4" stroke-opacity="0.55"/>
<text x="1140" y="2896" font-size="20" font-weight="400" fill="#c9cbd4">0 of 20 direction verdicts flip; at least 2 of 20 precision claims weaken</text><line x1="1132" y1="2903" x2="2020" y2="2903" stroke="#3f9e6e" stroke-width="1.4" stroke-opacity="0.55"/>
<text x="1140" y="2958" font-size="20" font-weight="400" fill="#c9cbd4">Corrected: S1-FORMAT MDE 4.34 → 9.44pp; S1-05B precision ±8.6% → ±61%</text><line x1="1132" y1="2965" x2="2020" y2="2965" stroke="#3f9e6e" stroke-width="1.4" stroke-opacity="0.55"/>
<text x="1140" y="3020" font-size="20" font-weight="400" fill="#c9cbd4">Mechanism: starling seed 5 carries whole format measures, across two GPUs</text><line x1="1132" y1="3027" x2="2020" y2="3027" stroke="#3f9e6e" stroke-width="1.4" stroke-opacity="0.55"/>
<text x="1140" y="3082" font-size="20" font-weight="400" fill="#c9cbd4">Every verdict now rests on the WIDER interval — a weakening, so no selection</text><line x1="1132" y1="3089" x2="2020" y2="3089" stroke="#3f9e6e" stroke-width="1.4" stroke-opacity="0.55"/>
<text x="1140" y="3144" font-size="20" font-weight="400" fill="#c9cbd4">Adopting the seed-level procedure outright is IN-008, open</text><line x1="1132" y1="3151" x2="2020" y2="3151" stroke="#3f9e6e" stroke-width="1.4" stroke-opacity="0.55"/>
<rect x="560" y="3366" width="535" height="66" rx="15" fill="#f2f0e6" stroke="#8a8a92" stroke-width="1.5"/><text x="828" y="3407" text-anchor="middle" font-size="23" font-weight="600" fill="#4a4a42">○ Can any of it be attributed to training?</text>
<text x="1140" y="3280" font-size="21" font-weight="700" fill="#a9a9b2">OPEN — nothing causal is established. This is the Stage 2 question.</text><line x1="1132" y1="3287" x2="2020" y2="3287" stroke="#8a8a92" stroke-width="1.4" stroke-opacity="0.55"/>
<text x="1140" y="3342" font-size="20" font-weight="400" fill="#c9cbd4">Registered design: six-arm replay from one resolved Phoenix checkpoint</text><line x1="1132" y1="3349" x2="2020" y2="3349" stroke="#8a8a92" stroke-width="1.4" stroke-opacity="0.55"/>
<text x="1140" y="3404" font-size="20" font-weight="400" fill="#c9cbd4">Public cooldown checkpoints at 1,340k / 1,360k / 1,380k are resolved</text><line x1="1132" y1="3411" x2="2020" y2="3411" stroke="#8a8a92" stroke-width="1.4" stroke-opacity="0.55"/>
<text x="1140" y="3466" font-size="20" font-weight="400" fill="#c9cbd4">Blocked: the ≥150-behavior eval set tops out at 101 distinct (IN-006)</text><line x1="1132" y1="3473" x2="2020" y2="3473" stroke="#8a8a92" stroke-width="1.4" stroke-opacity="0.55"/>
<text x="1140" y="3528" font-size="20" font-weight="400" fill="#c9cbd4">Blocked: external replay allocation and training-state handoff (IN-001)</text><line x1="1132" y1="3535" x2="2020" y2="3535" stroke="#8a8a92" stroke-width="1.4" stroke-opacity="0.55"/>
<rect x="48" y="1792" width="270" height="92" rx="16" fill="#f7f5ee"/><text x="183.0" y="1832" text-anchor="middle" font-size="26" font-weight="700" fill="#1c1c1e">Phoenix → Starling</text><text x="183.0" y="1864" text-anchor="middle" font-size="19" fill="#55555c">marin-8b-base · Stage 1</text>
</svg>